<svg id="Capa_1" enable-background="new 0 0 512 512" height="512" viewBox="0 0 512 512" width="512" xmlns="http://www.w3.org/2000/svg"><g><path d="m394.47 75.104 42.426 42.426 68.157-33.307c3.839-2.442 6.361-6.495 6.857-11.018.496-4.522-1.086-9.026-4.303-12.243l-56.569-56.569c-3.217-3.217-7.721-4.8-12.243-4.304s-8.575 3.019-11.018 6.857z"/><g><g><path d="m200.843 167.733h226.848v60h-226.848z" transform="matrix(.707 -.707 .707 .707 -47.772 280.135)"/></g><path d="m234.064 320.362-42.426-42.426c-17.545-17.545-46.094-17.546-63.64 0l-106.066 106.066c-29.243 29.243-29.242 76.824 0 106.066 29.243 29.243 76.823 29.243 106.066 0l106.066-106.066c17.546-17.546 17.546-46.094 0-63.64zm-148.492 127.28c-5.858 5.858-15.355 5.858-21.213 0s-5.858-15.355 0-21.213l84.853-84.853c5.858-5.858 15.355-5.858 21.213 0s5.858 15.355 0 21.213z"/></g></g></svg>